# Blender v2.61 (sub 0) OBJ File: 'emptyCube.blend'
# www.blender.org
mtllib emptyCube.mtl
o Cube_Cube.001
v 0.000000 1.654974 1.664754
v 0.000000 -1.654974 1.664754
v 0.000000 1.654974 -1.664754
v 0.000000 -1.654974 -1.664754
v -1.654974 0.000000 1.664754
v -1.654974 0.000000 -1.664754
v 1.654974 0.000000 1.664754
v 1.654974 0.000000 -1.664754
v -1.654974 1.654974 0.000000
v -1.654974 -1.654974 0.000000
v 1.654974 1.654974 0.000000
v 1.654974 -1.654974 0.000000
v -1.654974 0.000000 0.000000
v 1.654974 0.000000 0.000000
v 0.000000 1.654974 0.000000
v 0.000000 -1.654974 0.000000
v -1.654974 1.592013 1.664754
v -1.654974 -1.592013 1.664754
v -1.654974 1.592013 -1.664754
v -1.654974 -1.592013 -1.664754
v 1.654974 1.592013 1.664754
v 1.654974 -1.592013 1.664754
v 1.654974 1.592013 -1.664754
v 1.654974 -1.592013 -1.664754
v 0.000000 1.592013 1.664754
v 0.000000 -1.592013 1.664754
v 0.000000 1.592013 -1.664754
v 0.000000 -1.592013 -1.664754
v -1.654974 1.592013 0.000000
v -1.654974 -1.592013 0.000000
v 1.654974 1.592013 0.000000
v 1.654974 -1.592013 0.000000
v -1.591322 1.654974 1.664754
v -1.591322 -1.654974 1.664754
v -1.591322 1.654974 -1.664754
v -1.591322 -1.654974 -1.664754
v 1.591322 1.654974 1.664754
v 1.591322 -1.654974 1.664754
v 1.591322 1.654974 -1.664754
v 1.591322 -1.654974 -1.664754
v -1.591322 0.000000 1.664754
v -1.591322 0.000000 -1.664754
v 1.591322 0.000000 1.664754
v 1.591322 0.000000 -1.664754
v -1.591322 1.654974 0.000000
v -1.591322 -1.654974 0.000000
v 1.591322 1.654974 0.000000
v 1.591322 -1.654974 0.000000
v -1.591322 1.592013 1.664754
v -1.591322 -1.592013 1.664754
v -1.591322 1.592013 -1.664754
v -1.591322 -1.592013 -1.664754
v 1.591322 1.592013 1.664754
v 1.591322 -1.592013 1.664754
v 1.591322 1.592013 -1.664754
v 1.591322 -1.592013 -1.664754
v -1.654974 1.654974 1.625381
v -1.654974 -1.654974 1.625381
v -1.654974 1.654974 -1.625381
v -1.654974 -1.654974 -1.625381
v 1.654974 1.654974 1.625381
v 1.654974 -1.654974 1.625381
v 1.654974 1.654974 -1.625381
v 1.654974 -1.654974 -1.625381
v -1.654974 0.000000 1.625381
v -1.654974 0.000000 -1.625381
v 1.654974 0.000000 1.625381
v 1.654974 0.000000 -1.625381
v 0.000000 1.654974 1.625381
v 0.000000 -1.654974 1.625381
v 0.000000 1.654974 -1.625381
v 0.000000 -1.654974 -1.625381
v -1.654974 1.592013 1.625381
v -1.654974 -1.592013 1.625381
v -1.654974 1.592013 -1.625381
v -1.654974 -1.592013 -1.625381
v 1.654974 1.592013 1.625381
v 1.654974 -1.592013 1.625381
v 1.654974 1.592013 -1.625381
v 1.654974 -1.592013 -1.625381
v -1.591322 1.654974 1.625381
v -1.591322 -1.654974 1.625381
v -1.591322 1.654974 -1.625381
v -1.591322 -1.654974 -1.625381
v 1.591322 1.654974 1.625381
v 1.591322 -1.654974 1.625381
v 1.591322 1.654974 -1.625381
v 1.591322 -1.654974 -1.625381
v 0.000000 2.000000 2.011819
v 0.000000 -2.000000 2.011819
v 0.000000 2.000000 -2.011819
v 0.000000 -2.000000 -2.011819
v -2.000000 0.000000 2.011819
v -2.000000 0.000000 -2.011819
v 2.000000 0.000000 2.011819
v 2.000000 0.000000 -2.011819
v -2.000000 2.000000 0.000000
v -2.000000 -2.000000 0.000000
v 2.000000 2.000000 0.000000
v 2.000000 -2.000000 0.000000
v -2.000000 0.000000 0.000000
v 2.000000 0.000000 0.000000
v 0.000000 2.000000 0.000000
v 0.000000 -2.000000 0.000000
v -1.983785 1.662760 2.001865
v -1.983785 -1.662760 2.001865
v -1.983785 1.662760 -2.001865
v -1.983785 -1.662760 -2.001865
v 1.983785 1.662760 2.001865
v 1.983785 -1.662760 2.001865
v 1.983785 1.662760 -2.001865
v 1.983785 -1.662760 -2.001865
v 0.000000 1.592013 2.011819
v 0.000000 -1.592013 2.011819
v 0.000000 1.592013 -2.011819
v 0.000000 -1.592013 -2.011819
v -2.000000 1.592013 0.000000
v -2.000000 -1.592013 0.000000
v 2.000000 1.592013 0.000000
v 2.000000 -1.592013 0.000000
v -1.661083 1.984003 2.001794
v -1.661083 -1.984003 2.001794
v -1.661083 1.984003 -2.001794
v -1.661083 -1.984003 -2.001794
v 1.661083 1.984003 2.001794
v 1.661083 -1.984003 2.001794
v 1.661083 1.984003 -2.001794
v 1.661083 -1.984003 -2.001794
v -1.591322 0.000000 2.011819
v -1.591322 0.000000 -2.011819
v 1.591322 0.000000 2.011819
v 1.591322 0.000000 -2.011819
v -1.591322 2.000000 0.000000
v -1.591322 -2.000000 0.000000
v 1.591322 2.000000 0.000000
v 1.591322 -2.000000 0.000000
v -1.591322 1.592013 2.011819
v -1.591322 -1.592013 2.011819
v -1.591322 1.592013 -2.011819
v -1.591322 -1.592013 -2.011819
v 1.591322 1.592013 2.011819
v 1.591322 -1.592013 2.011819
v 1.591322 1.592013 -2.011819
v 1.591322 -1.592013 -2.011819
v -1.984363 1.984645 1.760965
v -1.984363 -1.984645 1.760965
v -1.984363 1.984645 -1.760965
v -1.984363 -1.984645 -1.760965
v 1.984363 1.984645 1.760965
v 1.984363 -1.984645 1.760965
v 1.984363 1.984645 -1.760965
v 1.984363 -1.984645 -1.760965
v -2.000000 0.000000 1.625381
v -2.000000 0.000000 -1.625381
v 2.000000 0.000000 1.625381
v 2.000000 0.000000 -1.625381
v 0.000000 2.000000 1.625381
v 0.000000 -2.000000 1.625381
v 0.000000 2.000000 -1.625381
v 0.000000 -2.000000 -1.625381
v -2.000000 1.592013 1.625381
v -2.000000 -1.592013 1.625381
v -2.000000 1.592013 -1.625381
v -2.000000 -1.592013 -1.625381
v 2.000000 1.592013 1.625381
v 2.000000 -1.592013 1.625381
v 2.000000 1.592013 -1.625381
v 2.000000 -1.592013 -1.625381
v -1.591322 2.000000 1.625381
v -1.591322 -2.000000 1.625381
v -1.591322 2.000000 -1.625381
v -1.591322 -2.000000 -1.625381
v 1.591322 2.000000 1.625381
v 1.591322 -2.000000 1.625381
v 1.591322 2.000000 -1.625381
v 1.591322 -2.000000 -1.625381
vn 0.099155 -0.699759 -0.707450
vn 0.000000 -0.707083 -0.707083
vn 0.301492 -0.301492 -0.904508
vn 0.000000 0.707083 -0.707083
vn 0.099155 0.699759 -0.707450
vn 0.301492 0.301492 -0.904508
vn 0.000000 -0.707083 0.707083
vn 0.099155 -0.699759 0.707450
vn 0.301492 -0.301492 0.904508
vn 0.099155 0.699759 0.707450
vn 0.000000 0.707083 0.707083
vn 0.301492 0.301492 0.904508
vn -0.099155 -0.699759 -0.707450
vn -0.301492 -0.301492 -0.904508
vn -0.099155 0.699759 -0.707450
vn -0.301492 0.301492 -0.904508
vn -0.099155 -0.699759 0.707450
vn -0.301492 -0.301492 0.904508
vn -0.099155 0.699759 0.707450
vn -0.301492 0.301492 0.904508
vn 0.707083 0.000000 -0.707083
vn 0.699393 -0.101474 -0.707480
vn 0.699393 0.101474 -0.707480
vn 0.699393 -0.101474 0.707480
vn 0.707083 0.000000 0.707083
vn 0.699393 0.101474 0.707480
vn -0.699393 -0.101474 -0.707480
vn -0.707083 0.000000 -0.707083
vn -0.699393 0.101474 -0.707480
vn -0.707083 0.000000 0.707083
vn -0.699393 -0.101474 0.707480
vn -0.699393 0.101474 0.707480
vn 1.000000 0.000000 0.000000
vn 0.707083 -0.707083 0.000000
vn 0.685659 -0.686087 -0.243110
vn 0.707083 0.707083 0.000000
vn 0.685659 0.686087 -0.243110
vn 0.685659 -0.686087 0.243110
vn 0.685659 0.686087 0.243110
vn -0.707083 -0.707083 0.000000
vn -1.000000 0.000000 0.000000
vn -0.685659 -0.686087 -0.243110
vn -0.707083 0.707083 0.000000
vn -0.685659 0.686087 -0.243110
vn -0.685659 -0.686087 0.243110
vn -0.685659 0.686087 0.243110
vn 0.000000 -1.000000 0.000000
vn 0.000000 1.000000 0.000000
vn 0.000000 -0.702750 0.711417
vn 0.000000 0.704947 0.709220
vn -0.126926 0.694205 0.708457
vn 0.293222 -0.293100 0.909970
vn -0.126926 -0.694205 0.708457
vn 0.000000 -0.704947 0.709220
vn 0.000000 0.702750 0.711417
vn 0.293222 0.293100 0.909970
vn -0.126926 0.694205 -0.708457
vn 0.000000 0.704947 -0.709220
vn 0.000000 -0.702750 -0.711417
vn 0.293222 -0.293100 -0.909970
vn 0.000000 0.702750 -0.711417
vn 0.000000 -0.704947 -0.709220
vn -0.126926 -0.694205 -0.708457
vn 0.293222 0.293100 -0.909970
vn 0.126926 0.694205 0.708457
vn -0.293222 -0.293100 0.909970
vn 0.126926 -0.694205 0.708457
vn -0.293222 0.293100 0.909970
vn 0.126926 0.694205 -0.708457
vn -0.293222 -0.293100 -0.909970
vn 0.126926 -0.694205 -0.708457
vn -0.293222 0.293100 -0.909970
vn -0.693808 0.128239 0.708609
vn -0.704856 0.000000 0.709311
vn 0.702780 0.000000 0.711386
vn -0.693808 -0.128239 0.708609
vn 0.702780 0.000000 -0.711386
vn -0.704856 0.000000 -0.709311
vn -0.693808 0.128239 -0.708609
vn -0.693808 -0.128239 -0.708609
vn -0.702780 0.000000 0.711386
vn 0.704856 0.000000 0.709311
vn 0.693808 0.128239 0.708609
vn 0.693808 -0.128239 0.708609
vn 0.693808 0.128239 -0.708609
vn 0.704856 0.000000 -0.709311
vn -0.702780 0.000000 -0.711386
vn 0.693808 -0.128239 -0.708609
vn -0.706992 0.707175 0.000000
vn -0.999939 0.009339 0.000000
vn -0.999817 0.011536 0.013581
vn -0.689810 0.690298 0.218238
vn -0.999817 -0.011536 0.013581
vn -0.999939 -0.009339 0.000000
vn -0.706992 -0.707175 0.000000
vn -0.689810 -0.690298 0.218238
vn -0.999817 0.011536 -0.013581
vn -0.689810 0.690298 -0.218238
vn -0.999817 -0.011536 -0.013581
vn -0.689810 -0.690298 -0.218238
vn 0.999817 0.011536 0.013581
vn 0.999939 0.009339 0.000000
vn 0.706992 0.707175 0.000000
vn 0.689810 0.690298 0.218238
vn 0.706992 -0.707175 0.000000
vn 0.999939 -0.009339 0.000000
vn 0.999817 -0.011536 0.013581
vn 0.689810 -0.690298 0.218238
vn 0.999817 0.011536 -0.013581
vn 0.689810 0.690298 -0.218238
vn 0.999817 -0.011536 -0.013581
vn 0.689810 -0.690298 -0.218238
vn -0.999939 0.000000 0.010376
vn -0.999939 0.000000 -0.010376
vn 0.999939 0.000000 0.010376
vn 0.999939 0.000000 -0.010376
vn -0.011322 0.999817 0.013428
vn -0.009156 0.999939 0.000000
vn -0.009156 -0.999939 0.000000
vn -0.011322 -0.999817 0.013428
vn -0.011322 0.999817 -0.013428
vn -0.011322 -0.999817 -0.013428
vn 0.009156 0.999939 0.000000
vn 0.011322 0.999817 0.013428
vn 0.011322 -0.999817 0.013428
vn 0.009156 -0.999939 0.000000
vn 0.011322 0.999817 -0.013428
vn 0.011322 -0.999817 -0.013428
vn 0.000000 0.999939 0.010254
vn 0.000000 -0.999939 0.010254
vn 0.000000 0.999939 -0.010254
vn 0.000000 -0.999939 -0.010254
usemtl 
s 1
f 33//1 1//2 25//2
f 33//1 25//2 49//3
f 26//4 2//4 34//5
f 26//4 34//5 50//6
f 27//7 3//7 35//8
f 27//7 35//8 51//9
f 36//10 4//11 28//11
f 36//10 28//11 52//12
f 25//2 1//2 37//13
f 25//2 37//13 53//14
f 38//15 2//4 26//4
f 38//15 26//4 54//16
f 39//17 3//7 27//7
f 39//17 27//7 55//18
f 28//11 4//11 40//19
f 28//11 40//19 56//20
f 41//21 5//21 17//22
f 41//21 17//22 49//3
f 18//23 5//21 41//21
f 18//23 41//21 50//6
f 19//24 6//25 42//25
f 19//24 42//25 51//9
f 42//25 6//25 20//26
f 42//25 20//26 52//12
f 21//27 7//28 43//28
f 21//27 43//28 53//14
f 43//28 7//28 22//29
f 43//28 22//29 54//16
f 44//30 8//30 23//31
f 44//30 23//31 55//18
f 24//32 8//30 44//30
f 24//32 44//30 56//20
f 73//33 29//33 9//34
f 73//33 9//34 57//35
f 10//36 30//33 74//33
f 10//36 74//33 58//37
f 9//34 29//33 75//33
f 9//34 75//33 59//38
f 76//33 30//33 10//36
f 76//33 10//36 60//39
f 11//40 31//41 77//41
f 11//40 77//41 61//42
f 78//41 32//41 12//43
f 78//41 12//43 62//44
f 79//41 31//41 11//40
f 79//41 11//40 63//45
f 12//43 32//41 80//41
f 12//43 80//41 64//46
f 5//21 65//33 73//33
f 5//21 73//33 17//22
f 74//33 65//33 5//21
f 74//33 5//21 18//23
f 75//33 66//33 6//25
f 75//33 6//25 19//24
f 6//25 66//33 76//33
f 6//25 76//33 20//26
f 77//41 67//41 7//28
f 77//41 7//28 21//27
f 7//28 67//41 78//41
f 7//28 78//41 22//29
f 8//30 68//41 79//41
f 8//30 79//41 23//31
f 80//41 68//41 8//30
f 80//41 8//30 24//32
f 65//33 13//33 29//33
f 65//33 29//33 73//33
f 30//33 13//33 65//33
f 30//33 65//33 74//33
f 29//33 13//33 66//33
f 29//33 66//33 75//33
f 66//33 13//33 30//33
f 66//33 30//33 76//33
f 31//41 14//41 67//41
f 31//41 67//41 77//41
f 67//41 14//41 32//41
f 67//41 32//41 78//41
f 68//41 14//41 31//41
f 68//41 31//41 79//41
f 32//41 14//41 68//41
f 32//41 68//41 80//41
f 45//47 81//47 57//35
f 45//47 57//35 9//34
f 58//37 82//48 46//48
f 58//37 46//48 10//36
f 59//38 83//47 45//47
f 59//38 45//47 9//34
f 46//48 84//48 60//39
f 46//48 60//39 10//36
f 61//42 85//47 47//47
f 61//42 47//47 11//40
f 48//48 86//48 62//44
f 48//48 62//44 12//43
f 47//47 87//47 63//45
f 47//47 63//45 11//40
f 64//46 88//48 48//48
f 64//46 48//48 12//43
f 15//47 69//47 81//47
f 15//47 81//47 45//47
f 82//48 70//48 16//48
f 82//48 16//48 46//48
f 83//47 71//47 15//47
f 83//47 15//47 45//47
f 16//48 72//48 84//48
f 16//48 84//48 46//48
f 85//47 69//47 15//47
f 85//47 15//47 47//47
f 16//48 70//48 86//48
f 16//48 86//48 48//48
f 15//47 71//47 87//47
f 15//47 87//47 47//47
f 88//48 72//48 16//48
f 88//48 16//48 48//48
f 69//47 1//2 33//1
f 69//47 33//1 81//47
f 34//5 2//4 70//48
f 34//5 70//48 82//48
f 35//8 3//7 71//47
f 35//8 71//47 83//47
f 72//48 4//11 36//10
f 72//48 36//10 84//48
f 37//13 1//2 69//47
f 37//13 69//47 85//47
f 70//48 2//4 38//15
f 70//48 38//15 86//48
f 71//47 3//7 39//17
f 71//47 39//17 87//47
f 40//19 4//11 72//48
f 40//19 72//48 88//48
f 17//22 73//33 57//35
f 58//37 74//33 18//23
f 59//38 75//33 19//24
f 20//26 76//33 60//39
f 61//42 77//41 21//27
f 22//29 78//41 62//44
f 23//31 79//41 63//45
f 64//46 80//41 24//32
f 17//22 33//1 49//3
f 50//6 34//5 18//23
f 51//9 35//8 19//24
f 20//26 36//10 52//12
f 53//14 37//13 21//27
f 22//29 38//15 54//16
f 23//31 39//17 55//18
f 56//20 40//19 24//32
f 33//1 57//35 81//47
f 82//48 58//37 34//5
f 83//47 59//38 35//8
f 36//10 60//39 84//48
f 85//47 61//42 37//13
f 38//15 62//44 86//48
f 39//17 63//45 87//47
f 88//48 64//46 40//19
f 17//22 57//35 33//1
f 34//5 58//37 18//23
f 35//8 59//38 19//24
f 20//26 60//39 36//10
f 37//13 61//42 21//27
f 22//29 62//44 38//15
f 23//31 63//45 39//17
f 40//19 64//46 24//32
f 113//49 89//50 121//51
f 113//49 121//51 137//52
f 122//53 90//54 114//55
f 122//53 114//55 138//56
f 123//57 91//58 115//59
f 123//57 115//59 139//60
f 116//61 92//62 124//63
f 116//61 124//63 140//64
f 125//65 89//50 113//49
f 125//65 113//49 141//66
f 114//55 90//54 126//67
f 114//55 126//67 142//68
f 115//59 91//58 127//69
f 115//59 127//69 143//70
f 128//71 92//62 116//61
f 128//71 116//61 144//72
f 105//73 93//74 129//75
f 105//73 129//75 137//52
f 129//75 93//74 106//76
f 129//75 106//76 138//56
f 130//77 94//78 107//79
f 130//77 107//79 139//60
f 108//80 94//78 130//77
f 108//80 130//77 140//64
f 131//81 95//82 109//83
f 131//81 109//83 141//66
f 110//84 95//82 131//81
f 110//84 131//81 142//68
f 111//85 96//86 132//87
f 111//85 132//87 143//70
f 132//87 96//86 112//88
f 132//87 112//88 144//72
f 97//89 117//90 161//91
f 97//89 161//91 145//92
f 162//93 118//94 98//95
f 162//93 98//95 146//96
f 163//97 117//90 97//89
f 163//97 97//89 147//98
f 98//95 118//94 164//99
f 98//95 164//99 148//100
f 165//101 119//102 99//103
f 165//101 99//103 149//104
f 100//105 120//106 166//107
f 100//105 166//107 150//108
f 99//103 119//102 167//109
f 99//103 167//109 151//110
f 168//111 120//106 100//105
f 168//111 100//105 152//112
f 161//91 153//113 93//74
f 161//91 93//74 105//73
f 93//74 153//113 162//93
f 93//74 162//93 106//76
f 94//78 154//114 163//97
f 94//78 163//97 107//79
f 164//99 154//114 94//78
f 164//99 94//78 108//80
f 95//82 155//115 165//101
f 95//82 165//101 109//83
f 166//107 155//115 95//82
f 166//107 95//82 110//84
f 167//109 156//116 96//86
f 167//109 96//86 111//85
f 96//86 156//116 168//111
f 96//86 168//111 112//88
f 117//90 101//41 153//113
f 117//90 153//113 161//91
f 153//113 101//41 118//94
f 153//113 118//94 162//93
f 154//114 101//41 117//90
f 154//114 117//90 163//97
f 118//94 101//41 154//114
f 118//94 154//114 164//99
f 155//115 102//33 119//102
f 155//115 119//102 165//101
f 120//106 102//33 155//115
f 120//106 155//115 166//107
f 119//102 102//33 156//116
f 119//102 156//116 167//109
f 156//116 102//33 120//106
f 156//116 120//106 168//111
f 145//92 169//117 133//118
f 145//92 133//118 97//89
f 134//119 170//120 146//96
f 134//119 146//96 98//95
f 133//118 171//121 147//98
f 133//118 147//98 97//89
f 148//100 172//122 134//119
f 148//100 134//119 98//95
f 135//123 173//124 149//104
f 135//123 149//104 99//103
f 150//108 174//125 136//126
f 150//108 136//126 100//105
f 151//110 175//127 135//123
f 151//110 135//123 99//103
f 136//126 176//128 152//112
f 136//126 152//112 100//105
f 169//117 157//129 103//48
f 169//117 103//48 133//118
f 104//47 158//130 170//120
f 104//47 170//120 134//119
f 103//48 159//131 171//121
f 103//48 171//121 133//118
f 172//122 160//132 104//47
f 172//122 104//47 134//119
f 103//48 157//129 173//124
f 103//48 173//124 135//123
f 174//125 158//130 104//47
f 174//125 104//47 136//126
f 175//127 159//131 103//48
f 175//127 103//48 135//123
f 104//47 160//132 176//128
f 104//47 176//128 136//126
f 121//51 89//50 157//129
f 121//51 157//129 169//117
f 158//130 90//54 122//53
f 158//130 122//53 170//120
f 159//131 91//58 123//57
f 159//131 123//57 171//121
f 124//63 92//62 160//132
f 124//63 160//132 172//122
f 157//129 89//50 125//65
f 157//129 125//65 173//124
f 126//67 90//54 158//130
f 126//67 158//130 174//125
f 127//69 91//58 159//131
f 127//69 159//131 175//127
f 160//132 92//62 128//71
f 160//132 128//71 176//128
f 145//92 161//91 105//73
f 106//76 162//93 146//96
f 107//79 163//97 147//98
f 148//100 164//99 108//80
f 109//83 165//101 149//104
f 150//108 166//107 110//84
f 151//110 167//109 111//85
f 112//88 168//111 152//112
f 137//52 121//51 105//73
f 106//76 122//53 138//56
f 107//79 123//57 139//60
f 140//64 124//63 108//80
f 109//83 125//65 141//66
f 142//68 126//67 110//84
f 143//70 127//69 111//85
f 112//88 128//71 144//72
f 169//117 145//92 121//51
f 122//53 146//96 170//120
f 123//57 147//98 171//121
f 172//122 148//100 124//63
f 125//65 149//104 173//124
f 174//125 150//108 126//67
f 175//127 151//110 127//69
f 128//71 152//112 176//128
f 121//51 145//92 105//73
f 106//76 146//96 122//53
f 107//79 147//98 123//57
f 124//63 148//100 108//80
f 109//83 149//104 125//65
f 126//67 150//108 110//84
f 127//69 151//110 111//85
f 112//88 152//112 128//71
f 44//30 55//18 143//70
f 44//30 143//70 132//87
f 50//6 41//21 129//75
f 50//6 129//75 138//56
f 43//28 54//16 142//68
f 43//28 142//68 131//81
f 42//25 52//12 140//64
f 42//25 140//64 130//77
f 28//11 56//20 144//72
f 28//11 144//72 116//61
f 52//12 28//11 116//61
f 52//12 116//61 140//64
f 26//4 50//6 138//56
f 26//4 138//56 114//55
f 41//21 49//3 137//52
f 41//21 137//52 129//75
f 25//2 53//14 141//66
f 25//2 141//66 113//49
f 56//20 44//30 132//87
f 56//20 132//87 144//72
f 54//16 26//4 114//55
f 54//16 114//55 142//68
f 53//14 43//28 131//81
f 53//14 131//81 141//66
f 49//3 25//2 113//49
f 49//3 113//49 137//52
f 51//9 42//25 130//77
f 51//9 130//77 139//60
f 27//7 51//9 139//60
f 27//7 139//60 115//59
f 55//18 27//7 115//59
f 55//18 115//59 143//70
